<?xml version="1.0" standalone="no"?>
<!DOCTYPE svg PUBLIC "-//W3C//DTD SVG 20010904//EN"
 "http://www.w3.org/TR/2001/REC-SVG-20010904/DTD/svg10.dtd">
<svg version="1.0" xmlns="http://www.w3.org/2000/svg"
 width="260.000000pt" height="260.000000pt" viewBox="0 0 260.000000 260.000000"
 preserveAspectRatio="xMidYMid meet">
<metadata>
Created by potrace 1.11, written by Peter Selinger 2001-2013
</metadata>
<g transform="translate(0.000000,260.000000) scale(0.100000,-0.100000)"
fill="#000000" stroke="none">
<path d="M0 1300 l0 -1300 1300 0 1300 0 0 1300 0 1300 -1300 0 -1300 0 0
-1300z m864 518 c7 -18 44 -112 81 -208 38 -96 92 -233 121 -305 l53 -130 1
153 0 152 84 0 c76 0 86 -2 100 -22 9 -12 16 -32 16 -44 0 -34 11 -35 47 -4
82 73 207 100 297 66 45 -17 108 -77 128 -121 l11 -24 28 39 c56 78 151 120
269 120 168 0 274 -85 309 -248 7 -33 11 -174 11 -372 l0 -320 -115 0 -115 0
0 325 c0 360 -2 374 -61 416 -26 18 -46 24 -84 23 -63 -1 -107 -23 -137 -71
-23 -38 -23 -42 -26 -365 l-3 -328 -115 0 -114 0 0 330 c0 360 -3 382 -56 417
-18 12 -46 18 -83 18 -47 0 -64 -6 -103 -33 -26 -18 -52 -42 -58 -52 -13 -24
-9 -636 4 -662 7 -17 -1 -18 -111 -18 -141 0 -125 -14 -198 180 l-50 135 -270
0 -270 0 -50 -137 c-28 -75 -59 -145 -69 -157 -17 -19 -30 -21 -134 -21 -87 0
-113 3 -109 13 2 6 29 75 60 152 130 329 398 1009 438 1113 8 21 13 22 134 22
l126 0 13 -32z"/>
<path d="M715 1580 c-6 -28 -139 -397 -184 -512 l-11 -28 205 0 205 0 -11 28
c-54 141 -165 448 -179 492 l-17 55 -8 -35z"/>
</g>
</svg>
